<svg width="28" height="16" viewBox="0 0 28 16" fill="none" xmlns="http://www.w3.org/2000/svg">
<path d="M10.88 15C10.7333 14.52 10.5667 14.0267 10.38 13.52C10.2067 13.0133 10.0333 12.5067 9.86 12H4.46C4.28667 12.5067 4.10667 13.0133 3.92 13.52C3.74667 14.0267 3.58667 14.52 3.44 15H0.2C0.72 13.5067 1.21333 12.1267 1.68 10.86C2.14667 9.59333 2.6 8.4 3.04 7.28C3.49333 6.16 3.93333 5.1 4.36 4.1C4.8 3.08667 5.25333 2.1 5.72 1.14H8.7C9.15333 2.1 9.6 3.08667 10.04 4.1C10.48 5.1 10.92 6.16 11.36 7.28C11.8133 8.4 12.2733 9.59333 12.74 10.86C13.2067 12.1267 13.7 13.5067 14.22 15H10.88ZM7.14 4.28C7.07333 4.48 6.97333 4.75333 6.84 5.1C6.70667 5.44667 6.55333 5.84667 6.38 6.3C6.20667 6.75333 6.01333 7.25333 5.8 7.8C5.6 8.34667 5.39333 8.92 5.18 9.52H9.12C8.90667 8.92 8.7 8.34667 8.5 7.8C8.3 7.25333 8.10667 6.75333 7.92 6.3C7.74667 5.84667 7.59333 5.44667 7.46 5.1C7.32667 4.75333 7.22 4.48 7.14 4.28ZM22.7263 15.28C20.4729 15.28 18.7529 14.6533 17.5662 13.4C16.3929 12.1467 15.8062 10.3667 15.8062 8.06C15.8062 6.91333 15.9862 5.89333 16.3462 5C16.7062 4.09333 17.1996 3.33333 17.8262 2.72C18.4529 2.09333 19.1996 1.62 20.0662 1.3C20.9329 0.979999 21.8729 0.819999 22.8862 0.819999C23.4729 0.819999 24.0062 0.866666 24.4863 0.96C24.9663 1.04 25.3863 1.14 25.7463 1.26C26.1062 1.36667 26.4062 1.48 26.6462 1.6C26.8862 1.72 27.0596 1.81333 27.1663 1.88L26.2662 4.4C25.8396 4.17333 25.3396 3.98 24.7663 3.82C24.2063 3.66 23.5663 3.58 22.8462 3.58C22.3663 3.58 21.8929 3.66 21.4263 3.82C20.9729 3.98 20.5662 4.24 20.2062 4.6C19.8596 4.94667 19.5796 5.4 19.3662 5.96C19.1529 6.52 19.0462 7.2 19.0462 8C19.0462 8.64 19.1129 9.24 19.2462 9.8C19.3929 10.3467 19.6196 10.82 19.9262 11.22C20.2462 11.62 20.6596 11.94 21.1662 12.18C21.6729 12.4067 22.2862 12.52 23.0063 12.52C23.4596 12.52 23.8663 12.4933 24.2262 12.44C24.5863 12.3867 24.9063 12.3267 25.1863 12.26C25.4663 12.18 25.7129 12.0933 25.9263 12C26.1396 11.9067 26.3329 11.82 26.5063 11.74L27.3663 14.24C26.9263 14.5067 26.3063 14.7467 25.5063 14.96C24.7063 15.1733 23.7796 15.28 22.7263 15.28Z" fill="#2F1DFF"/>
</svg>
