<svg width="62" height="42" viewBox="0 0 62 42" fill="none" xmlns="http://www.w3.org/2000/svg">
<path d="M4.608 38.18C4.024 38.18 3.492 38.084 3.012 37.892C2.532 37.7 2.12 37.42 1.776 37.052C1.432 36.684 1.164 36.232 0.972 35.696C0.788 35.152 0.696 34.532 0.696 33.836C0.696 33.14 0.8 32.524 1.008 31.988C1.224 31.444 1.512 30.988 1.872 30.62C2.232 30.252 2.652 29.972 3.132 29.78C3.612 29.588 4.124 29.492 4.668 29.492C5.012 29.492 5.32 29.516 5.592 29.564C5.872 29.612 6.112 29.668 6.312 29.732C6.52 29.796 6.688 29.86 6.816 29.924C6.944 29.988 7.032 30.036 7.08 30.068L6.744 31.028C6.672 30.98 6.568 30.928 6.432 30.872C6.296 30.816 6.14 30.76 5.964 30.704C5.796 30.648 5.608 30.604 5.4 30.572C5.2 30.532 4.996 30.512 4.788 30.512C4.348 30.512 3.952 30.588 3.6 30.74C3.248 30.892 2.948 31.112 2.7 31.4C2.452 31.688 2.26 32.04 2.124 32.456C1.996 32.864 1.932 33.324 1.932 33.836C1.932 34.332 1.988 34.784 2.1 35.192C2.22 35.6 2.396 35.952 2.628 36.248C2.86 36.536 3.148 36.76 3.492 36.92C3.844 37.08 4.252 37.16 4.716 37.16C5.252 37.16 5.696 37.104 6.048 36.992C6.4 36.88 6.664 36.78 6.84 36.692L7.14 37.652C7.084 37.692 6.984 37.744 6.84 37.808C6.696 37.864 6.516 37.92 6.3 37.976C6.084 38.032 5.832 38.08 5.544 38.12C5.256 38.16 4.944 38.18 4.608 38.18ZM30.9189 38C30.7829 37.64 30.6549 37.288 30.5349 36.944C30.4149 36.592 30.2909 36.236 30.1629 35.876H26.3949L25.6389 38H24.4269C24.7469 37.12 25.0469 36.308 25.3269 35.564C25.6069 34.812 25.8789 34.1 26.1429 33.428C26.4149 32.756 26.6829 32.116 26.9469 31.508C27.2109 30.892 27.4869 30.284 27.7749 29.684H28.8429C29.1309 30.284 29.4069 30.892 29.6709 31.508C29.9349 32.116 30.1989 32.756 30.4629 33.428C30.7349 34.1 31.0109 34.812 31.2909 35.564C31.5709 36.308 31.8709 37.12 32.1909 38H30.9189ZM29.8269 34.916C29.5709 34.22 29.3149 33.548 29.0589 32.9C28.8109 32.244 28.5509 31.616 28.2789 31.016C27.9989 31.616 27.7309 32.244 27.4749 32.9C27.2269 33.548 26.9789 34.22 26.7309 34.916H29.8269ZM54.008 34.52C54.136 34.68 54.296 34.892 54.488 35.156C54.688 35.412 54.892 35.7 55.1 36.02C55.308 36.332 55.512 36.66 55.712 37.004C55.92 37.348 56.096 37.68 56.24 38H54.968C54.808 37.696 54.632 37.388 54.44 37.076C54.256 36.764 54.068 36.468 53.876 36.188C53.684 35.9 53.492 35.632 53.3 35.384C53.116 35.136 52.948 34.92 52.796 34.736C52.692 34.744 52.584 34.748 52.472 34.748C52.368 34.748 52.26 34.748 52.148 34.748H51.104V38H49.94V29.804C50.268 29.724 50.632 29.672 51.032 29.648C51.44 29.616 51.812 29.6 52.148 29.6C53.316 29.6 54.204 29.82 54.812 30.26C55.428 30.7 55.736 31.356 55.736 32.228C55.736 32.78 55.588 33.252 55.292 33.644C55.004 34.036 54.576 34.328 54.008 34.52ZM52.244 30.62C51.748 30.62 51.368 30.632 51.104 30.656V33.788H51.932C52.332 33.788 52.692 33.768 53.012 33.728C53.332 33.688 53.6 33.612 53.816 33.5C54.04 33.388 54.212 33.232 54.332 33.032C54.452 32.824 54.512 32.552 54.512 32.216C54.512 31.904 54.452 31.644 54.332 31.436C54.212 31.228 54.048 31.064 53.84 30.944C53.64 30.824 53.4 30.74 53.12 30.692C52.848 30.644 52.556 30.62 52.244 30.62Z" fill="white"/>
<path d="M10.88 21C10.7333 20.52 10.5667 20.0267 10.38 19.52C10.2067 19.0133 10.0333 18.5067 9.86 18H4.46C4.28667 18.5067 4.10667 19.0133 3.92 19.52C3.74667 20.0267 3.58667 20.52 3.44 21H0.2C0.72 19.5067 1.21333 18.1267 1.68 16.86C2.14667 15.5933 2.6 14.4 3.04 13.28C3.49333 12.16 3.93333 11.1 4.36 10.1C4.8 9.08667 5.25333 8.1 5.72 7.14H8.7C9.15333 8.1 9.6 9.08667 10.04 10.1C10.48 11.1 10.92 12.16 11.36 13.28C11.8133 14.4 12.2733 15.5933 12.74 16.86C13.2067 18.1267 13.7 19.5067 14.22 21H10.88ZM7.14 10.28C7.07333 10.48 6.97333 10.7533 6.84 11.1C6.70667 11.4467 6.55333 11.8467 6.38 12.3C6.20667 12.7533 6.01333 13.2533 5.8 13.8C5.6 14.3467 5.39333 14.92 5.18 15.52H9.12C8.90667 14.92 8.7 14.3467 8.5 13.8C8.3 13.2533 8.10667 12.7533 7.92 12.3C7.74667 11.8467 7.59333 11.4467 7.46 11.1C7.32667 10.7533 7.22 10.48 7.14 10.28ZM18.3263 14.06C18.3263 14.74 18.4062 15.3533 18.5662 15.9C18.7396 16.4467 18.9796 16.92 19.2862 17.32C19.6063 17.7067 19.9929 18.0067 20.4462 18.22C20.8996 18.4333 21.4196 18.54 22.0063 18.54C22.5796 18.54 23.0929 18.4333 23.5463 18.22C24.0129 18.0067 24.3996 17.7067 24.7063 17.32C25.0263 16.92 25.2663 16.4467 25.4263 15.9C25.5996 15.3533 25.6863 14.74 25.6863 14.06C25.6863 13.38 25.5996 12.7667 25.4263 12.22C25.2663 11.66 25.0263 11.1867 24.7063 10.8C24.3996 10.4 24.0129 10.0933 23.5463 9.88C23.0929 9.66667 22.5796 9.56 22.0063 9.56C21.4196 9.56 20.8996 9.67333 20.4462 9.9C19.9929 10.1133 19.6063 10.42 19.2862 10.82C18.9796 11.2067 18.7396 11.68 18.5662 12.24C18.4062 12.7867 18.3263 13.3933 18.3263 14.06ZM28.9062 14.06C28.9062 15.0333 28.7863 15.9133 28.5463 16.7C28.3063 17.4733 27.9663 18.1533 27.5262 18.74C27.0996 19.3267 26.5863 19.8133 25.9863 20.2C25.3863 20.5867 24.7263 20.8667 24.0063 21.04C24.0729 21.3067 24.2196 21.52 24.4463 21.68C24.6729 21.8533 24.9596 21.9933 25.3062 22.1C25.6529 22.2067 26.0529 22.2867 26.5062 22.34C26.9729 22.3933 27.4729 22.44 28.0063 22.48L27.3663 24.76C26.3263 24.72 25.4329 24.6133 24.6863 24.44C23.9529 24.28 23.3263 24.0533 22.8063 23.76C22.2996 23.4667 21.8929 23.1067 21.5863 22.68C21.2929 22.2533 21.0663 21.76 20.9062 21.2C20.0796 21.0933 19.3129 20.8667 18.6062 20.52C17.8996 20.16 17.2862 19.68 16.7662 19.08C16.2462 18.48 15.8396 17.76 15.5462 16.92C15.2529 16.08 15.1062 15.1267 15.1062 14.06C15.1062 12.8733 15.2929 11.8333 15.6662 10.94C16.0396 10.0333 16.5396 9.27333 17.1663 8.66C17.8062 8.04667 18.5396 7.58667 19.3663 7.28C20.2062 6.97333 21.0862 6.82 22.0063 6.82C22.9529 6.82 23.8463 6.97333 24.6863 7.28C25.5263 7.58667 26.2596 8.04667 26.8863 8.66C27.5129 9.27333 28.0063 10.0333 28.3663 10.94C28.7263 11.8333 28.9062 12.8733 28.9062 14.06ZM37.127 21.28C36.1537 21.28 35.3137 21.1467 34.607 20.88C33.9004 20.6 33.3137 20.22 32.847 19.74C32.3937 19.2467 32.0537 18.6667 31.827 18C31.6137 17.32 31.507 16.5733 31.507 15.76V7.14H34.627V15.5C34.627 16.06 34.687 16.54 34.807 16.94C34.9404 17.3267 35.1137 17.6467 35.327 17.9C35.5537 18.14 35.8204 18.3133 36.127 18.42C36.447 18.5267 36.7937 18.58 37.167 18.58C37.927 18.58 38.5404 18.3467 39.007 17.88C39.487 17.4133 39.727 16.62 39.727 15.5V7.14H42.847V15.76C42.847 16.5733 42.7337 17.32 42.507 18C42.2804 18.68 41.9337 19.2667 41.467 19.76C41.0004 20.24 40.407 20.6133 39.687 20.88C38.967 21.1467 38.1137 21.28 37.127 21.28ZM54.937 21C54.7904 20.52 54.6237 20.0267 54.437 19.52C54.2637 19.0133 54.0904 18.5067 53.917 18H48.517C48.3437 18.5067 48.1637 19.0133 47.977 19.52C47.8037 20.0267 47.6437 20.52 47.497 21H44.257C44.777 19.5067 45.2704 18.1267 45.737 16.86C46.2037 15.5933 46.657 14.4 47.097 13.28C47.5504 12.16 47.9904 11.1 48.417 10.1C48.857 9.08667 49.3104 8.1 49.777 7.14H52.757C53.2104 8.1 53.657 9.08667 54.097 10.1C54.537 11.1 54.977 12.16 55.417 13.28C55.8704 14.4 56.3304 15.5933 56.797 16.86C57.2637 18.1267 57.757 19.5067 58.277 21H54.937ZM51.197 10.28C51.1304 10.48 51.0304 10.7533 50.897 11.1C50.7637 11.4467 50.6104 11.8467 50.437 12.3C50.2637 12.7533 50.0704 13.2533 49.857 13.8C49.657 14.3467 49.4504 14.92 49.237 15.52H53.177C52.9637 14.92 52.757 14.3467 52.557 13.8C52.357 13.2533 52.1637 12.7533 51.977 12.3C51.8037 11.8467 51.6504 11.4467 51.517 11.1C51.3837 10.7533 51.277 10.48 51.197 10.28Z" fill="white"/>
</svg>
